<svg width="24" height="19" viewBox="0 0 24 19" fill="none" xmlns="http://www.w3.org/2000/svg">
<path d="M4.99984 19C4.71651 19 4.45818 18.9125 4.22484 18.7375C3.99151 18.5625 3.83317 18.3333 3.74984 18.05L0.949842 7.95C0.866508 7.71667 0.904008 7.5 1.06234 7.3C1.22068 7.1 1.43318 7 1.69984 7H6.74984L11.1498 0.45C11.2332 0.316667 11.3498 0.208333 11.4998 0.125C11.6498 0.0416667 11.8082 0 11.9748 0C12.1415 0 12.2998 0.0416667 12.4498 0.125C12.5998 0.208333 12.7165 0.316667 12.7998 0.45L17.1998 7H22.2998C22.5665 7 22.779 7.1 22.9373 7.3C23.0957 7.5 23.1332 7.71667 23.0498 7.95L20.2498 18.05C20.1665 18.3333 20.0082 18.5625 19.7748 18.7375C19.5415 18.9125 19.2832 19 18.9998 19H4.99984ZM5.49984 17H18.4998L20.6998 9H3.29984L5.49984 17ZM9.17484 7H14.7998L11.9748 2.8L9.17484 7Z" fill="white"/>
</svg>
